<?xml version="1.0" encoding="utf-8"?>
<!-- Generator: Adobe Illustrator 24.2.3, SVG Export Plug-In . SVG Version: 6.00 Build 0)  -->
<svg version="1.1" id="Capa_1" xmlns="http://www.w3.org/2000/svg" xmlns:xlink="http://www.w3.org/1999/xlink" x="0px" y="0px"
	 viewBox="0 0 236.1 190.1" style="enable-background:new 0 0 236.1 190.1;" xml:space="preserve">
<style type="text/css">
	.st0{fill:url(#SVGID_1_);}
	.st1{fill:#343970;}
	.st2{fill:#F9F9F9;}
	.st3{opacity:0.41;fill:#384D98;enable-background:new    ;}
	.st4{fill:#717EBC;}
	.st5{fill:url(#SVGID_2_);}
	.st6{fill:url(#SVGID_3_);}
	.st7{fill:url(#SVGID_4_);}
	.st8{fill:#384D98;}
	.st9{fill:#FFFFFF;}
	.st10{fill:url(#SVGID_5_);}
	.st11{opacity:0.34;fill:url(#SVGID_6_);enable-background:new    ;}
	.st12{fill:url(#SVGID_7_);}
	.st13{fill:url(#SVGID_8_);}
	.st14{fill:url(#SVGID_9_);}
	.st15{opacity:0.41;}
	.st16{fill:url(#SVGID_10_);}
	.st17{fill:url(#SVGID_11_);}
	.st18{fill:url(#SVGID_12_);}
	.st19{fill:#DB1D2E;}
</style>
<g>
	
		<linearGradient id="SVGID_1_" gradientUnits="userSpaceOnUse" x1="128.8815" y1="195.1922" x2="118.7972" y2="129.6446" gradientTransform="matrix(1 0 0 -1 0 192)">
		<stop  offset="0" style="stop-color:#FFFFFF"/>
		<stop  offset="5.859911e-02" style="stop-color:#FDFDFE"/>
		<stop  offset="1" style="stop-color:#E4E6F3"/>
	</linearGradient>
	<path class="st0" d="M44.2,189h133.4c35.1-31,44.8-83.5,20.4-125.7C170.2,15.2,108.7-1.3,60.6,26.5S-4,115.8,23.8,163.9
		C29.3,173.6,36.3,182,44.2,189z"/>
	<g>
		<g>
			<g>
				<path class="st1" d="M177.4,189.6c1.1-5.7,3.8-10.5,7-12.6c3.3-2.1,7-1.5,10,1.5c1.9,2,3.6,5,5.8,5.8c2.5,0.9,4.9-1.2,7.3-2.4
					c2.3-1.2,4.8-1.5,7.1-0.2s4.3,4.3,5,8.4"/>
			</g>
			<g>
				<polygon class="st2" points="48.8,113 48.8,122.8 19.1,122.8 19.1,190 48.8,190 108.7,190 108.7,113 				"/>
				<polygon class="st3" points="48.8,113 48.8,122.8 19.1,122.8 19.1,190 48.8,190 108.7,190 108.7,113 				"/>
				<g>
					<polygon class="st4" points="141.4,83.3 141.5,83.2 58.6,83.2 6.1,128.9 81.3,128.9 81.3,129 97.3,129 149.5,83.3 					"/>
					<polygon class="st2" points="96.6,129 149,83.3 201.5,129 192.9,129 192.9,190 105.2,190 105.2,129 					"/>
					
						<linearGradient id="SVGID_2_" gradientUnits="userSpaceOnUse" x1="176.9476" y1="45.0041" x2="206.3646" y2="38.8986" gradientTransform="matrix(1 0 0 -1 0 192)">
						<stop  offset="0" style="stop-color:#FFFFFF"/>
						<stop  offset="5.859911e-02" style="stop-color:#FDFDFE"/>
						<stop  offset="1" style="stop-color:#E4E6F3"/>
					</linearGradient>
					<polygon class="st5" points="96.6,129 149,83.3 201.5,129 192.9,129 192.9,190 105.2,190 105.2,129 					"/>
					<g>
						
							<linearGradient id="SVGID_3_" gradientUnits="userSpaceOnUse" x1="148.6217" y1="60.8304" x2="157.6046" y2="100.5626" gradientTransform="matrix(1 0 0 -1 0 192)">
							<stop  offset="0" style="stop-color:#FFFFFF"/>
							<stop  offset="5.859911e-02" style="stop-color:#FDFDFE"/>
							<stop  offset="1" style="stop-color:#E4E6F3"/>
						</linearGradient>
						<polyline class="st6" points="108.8,126.4 149.7,90.7 190.6,126.4 						"/>
						
							<linearGradient id="SVGID_4_" gradientUnits="userSpaceOnUse" x1="108.5" y1="83.6" x2="190.9863" y2="83.6" gradientTransform="matrix(1 0 0 -1 0 192)">
							<stop  offset="0" style="stop-color:#FFFFFF"/>
							<stop  offset="5.859911e-02" style="stop-color:#FDFDFE"/>
							<stop  offset="1" style="stop-color:#E4E6F3"/>
						</linearGradient>
						<polygon class="st7" points="190.3,126.8 149.7,91.4 109.1,126.8 108.5,126 149.7,90 190.9,126 						"/>
					</g>
				</g>
				<g>
					<g>
						<rect x="31" y="147.3" class="st4" width="27.2" height="22.1"/>
					</g>
					<rect x="33.3" y="149.2" class="st3" width="22.6" height="18.4"/>
					<rect x="33.3" y="149.2" class="st8" width="22.6" height="18.4"/>
					<rect x="35.6" y="151.5" class="st9" width="20.4" height="16.2"/>
					<rect x="35.6" y="151.5" class="st1" width="20.4" height="16.2"/>
					<rect x="43.5" y="149.2" class="st4" width="2.3" height="20.2"/>
				</g>
			</g>
			<path class="st1" d="M31.4,190c0-6.7-5.5-12.2-12.2-12.2S7,183.3,7,190"/>
			
				<linearGradient id="SVGID_5_" gradientUnits="userSpaceOnUse" x1="131.9457" y1="54.25" x2="168.1457" y2="54.25" gradientTransform="matrix(1 0 0 -1 0 192)">
				<stop  offset="0" style="stop-color:#FFFFFF"/>
				<stop  offset="0.6227" style="stop-color:#FAD7CD"/>
				<stop  offset="1" style="stop-color:#F7C3B4"/>
			</linearGradient>
			<polygon class="st10" points="131.9,149.2 168.1,149.2 168.1,126.3 131.9,126.3 			"/>
			<rect x="136.2" y="129" class="st4" width="27.6" height="17.4"/>
			
				<linearGradient id="SVGID_6_" gradientUnits="userSpaceOnUse" x1="136.2591" y1="54.3" x2="163.8329" y2="54.3" gradientTransform="matrix(1 0 0 -1 0 192)">
				<stop  offset="0" style="stop-color:#FFFFFF"/>
				<stop  offset="5.859911e-02" style="stop-color:#FDFDFE"/>
				<stop  offset="1" style="stop-color:#E4E6F3"/>
			</linearGradient>
			<path class="st11" d="M141.4,129h-5.2v17.4h22.6C153,140.6,147.2,134.8,141.4,129z"/>
			
				<linearGradient id="SVGID_7_" gradientUnits="userSpaceOnUse" x1="125.8" y1="17.1" x2="173.4639" y2="17.1" gradientTransform="matrix(1 0 0 -1 0 192)">
				<stop  offset="0" style="stop-color:#FFFFFF"/>
				<stop  offset="0.6227" style="stop-color:#FAD7CD"/>
				<stop  offset="1" style="stop-color:#F7C3B4"/>
			</linearGradient>
			<polygon class="st12" points="125.8,190 173.4,190 173.4,159.8 125.8,159.8 			"/>
			<polygon class="st4" points="125.8,164.5 125.8,190 151.2,190 			"/>
			<rect x="125.7" y="167" class="st1" width="47.7" height="1.5"/>
			<rect x="125.7" y="175.8" class="st1" width="47.7" height="1.5"/>
			<rect x="125.7" y="185.4" class="st1" width="47.7" height="1.5"/>
			<rect x="7.2" y="127.8" class="st2" width="98" height="4.2"/>
		</g>
		<g>
			<g>
				<g>
					<path class="st2" d="M44.6,153.6H4.2c-2.3,0-4.2-1.9-4.2-4.2V109c0-2.3,1.9-4.2,4.2-4.2h40.3c2.3,0,4.2,1.9,4.2,4.2v40.3
						C48.8,151.7,46.9,153.6,44.6,153.6z"/>
					
						<linearGradient id="SVGID_8_" gradientUnits="userSpaceOnUse" x1="27.3844" y1="61.2069" x2="6.9358" y2="71.9424" gradientTransform="matrix(1 0 0 -1 0 192)">
						<stop  offset="0" style="stop-color:#FFFFFF"/>
						<stop  offset="5.859911e-02" style="stop-color:#FDFDFE"/>
						<stop  offset="1" style="stop-color:#E4E6F3"/>
					</linearGradient>
					<path class="st13" d="M44.6,153.6H4.2c-2.3,0-4.2-1.9-4.2-4.2V109c0-2.3,1.9-4.2,4.2-4.2h40.3c2.3,0,4.2,1.9,4.2,4.2v40.3
						C48.8,151.7,46.9,153.6,44.6,153.6z"/>
				</g>
				<g>
					<rect x="14.1" y="117.3" class="st9" width="20.5" height="25.7"/>
					<rect x="23.7" y="117.3" class="st4" width="2.2" height="25.7"/>
					<rect x="12" y="129" class="st4" width="25.7" height="2.2"/>
					<g>
						<polygon class="st1" points="14.1,142.9 7.5,140.7 7.5,115.1 14.1,117.3 						"/>
						<polygon class="st1" points="34.7,142.9 41.3,140.7 41.3,115.1 34.7,117.3 						"/>
					</g>
				</g>
			</g>
		</g>
	</g>
	<path class="st9" d="M233.2,137.5h-43.5c-1.7,0-3-1.3-3-3V91c0-1.7,1.3-3,3-3h43.5c1.7,0,3,1.3,3,3v43.5
		C236.1,136.1,234.8,137.5,233.2,137.5z"/>
	<path class="st2" d="M233.2,137.5h-43.5c-1.7,0-3-1.3-3-3V91c0-1.7,1.3-3,3-3h43.5c1.7,0,3,1.3,3,3v43.5
		C236.1,136.1,234.8,137.5,233.2,137.5z"/>
	
		<linearGradient id="SVGID_9_" gradientUnits="userSpaceOnUse" x1="192.6107" y1="79.6881" x2="247.4792" y2="78.4121" gradientTransform="matrix(1 0 0 -1 0 192)">
		<stop  offset="0" style="stop-color:#FFFFFF"/>
		<stop  offset="5.859911e-02" style="stop-color:#FDFDFE"/>
		<stop  offset="1" style="stop-color:#E4E6F3"/>
	</linearGradient>
	<path class="st14" d="M233.2,137.5h-43.5c-1.7,0-3-1.3-3-3V91c0-1.7,1.3-3,3-3h43.5c1.7,0,3,1.3,3,3v43.5
		C236.1,136.1,234.8,137.5,233.2,137.5z"/>
	<g class="st15">
		<path class="st8" d="M211.2,126.7c-3.9-4-7.6-8-10.1-12.9c-2.7-5.4,0.1-11.9,6-14.1c5.8-2.2,12.4,0.6,14.5,6.3
			c1,2.7,0.9,5.4-0.4,7.9C218.7,118.7,215.1,122.7,211.2,126.7z M211.2,115.5c3.7,0,6.6-2.8,6.6-6.3s-3-6.3-6.7-6.3
			s-6.7,2.8-6.6,6.4C204.5,112.7,207.5,115.5,211.2,115.5z"/>
	</g>
	<g>
		<g>
			<path class="st2" d="M138.4,166.7H70c-1.7,0-3-1.3-3-3v-11.2c0-1.7,1.3-3,3-3h68.3c1.7,0,3,1.3,3,3v11.2
				C141.4,165.4,140,166.7,138.4,166.7z"/>
		</g>
		<g>
			
				<linearGradient id="SVGID_10_" gradientUnits="userSpaceOnUse" x1="103.2155" y1="28.9937" x2="105.0247" y2="38.341" gradientTransform="matrix(1 0 0 -1 0 192)">
				<stop  offset="0" style="stop-color:#FFFFFF"/>
				<stop  offset="5.859911e-02" style="stop-color:#FDFDFE"/>
				<stop  offset="1" style="stop-color:#E4E6F3"/>
			</linearGradient>
			<path class="st16" d="M138.4,166.7H70c-1.7,0-3-1.3-3-3v-11.2c0-1.7,1.3-3,3-3h68.3c1.7,0,3,1.3,3,3v11.2
				C141.4,165.4,140,166.7,138.4,166.7z"/>
		</g>
		<g>
			<path class="st1" d="M78.2,166.9h-7.6c-2.9,0-5.3-2.4-5.3-5.3v-6.7c0-2.9,2.4-5.3,5.3-5.3h7.6c2.9,0,5.3,2.4,5.3,5.3v6.7
				C83.5,164.5,81.1,166.9,78.2,166.9z"/>
			<g>
				<path class="st9" d="M73.8,162.3c-1.6-0.1-2.7-1.1-2.7-2.4h1.3c0.1,0.7,0.5,1.3,1.4,1.5v-3.3c-1.3-0.3-2.7-0.7-2.7-2.5
					c0-1.4,1.1-2.4,2.7-2.5V152h0.7v1.1c1.5,0.1,2.4,1,2.6,2.3h-1.3c-0.1-0.6-0.5-1.1-1.3-1.3v3.2c1.3,0.3,2.7,0.7,2.7,2.5
					c0,1.2-0.9,2.5-2.7,2.6v1.1h-0.7V162.3z M73.8,157.1v-3c-0.9,0.1-1.5,0.5-1.5,1.5C72.3,156.5,72.9,156.8,73.8,157.1z
					 M74.5,158.3v3.1c1-0.1,1.5-0.8,1.5-1.5C76,158.9,75.3,158.5,74.5,158.3z"/>
			</g>
		</g>
		<rect x="87.4" y="156" class="st1" width="34" height="4"/>
		<rect x="128.4" y="156" class="st1" width="8" height="4"/>
	</g>
	<g>
		<g class="st15">
			<g>
				<path class="st8" d="M90.4,84l-23.3,23.3c-0.6,0.6-0.6,1.7,0,2.3l8.2,8.2c0.6,0.6,1.7,0.6,2.3,0L111.4,84H90.4z"/>
			</g>
		</g>
		<g>
			<g>
				<g>
					<circle class="st1" cx="136.1" cy="40.4" r="40.4"/>
				</g>
				<path class="st1" d="M107.6,68l-2.4-2.4c-0.6-0.6-1.7-0.6-2.3,0l-2,2l-2.4-2.4c-0.6-0.6-1.7-0.6-2.3,0l-41.7,41.7
					c-0.6,0.6-0.6,1.7,0,2.3l8.2,8.2c0.6,0.6,1.7,0.6,2.3,0l41.7-41.7c0.6-0.6,0.6-1.7,0-2.3l-1.1-1.1l2-2
					C108.2,69.6,108.2,68.6,107.6,68z"/>
			</g>
			<g>
				
					<ellipse transform="matrix(0.1091 -0.994 0.994 0.1091 81.4196 170.4463)" class="st2" cx="135.8" cy="39.8" rx="33.9" ry="33.9"/>
				
					<linearGradient id="SVGID_11_" gradientUnits="userSpaceOnUse" x1="101.9633" y1="171.25" x2="169.7256" y2="171.25" gradientTransform="matrix(1 0 0 -1 0 192)">
					<stop  offset="0" style="stop-color:#FFFFFF"/>
					<stop  offset="5.859911e-02" style="stop-color:#FDFDFE"/>
					<stop  offset="1" style="stop-color:#E4E6F3"/>
				</linearGradient>
				<path class="st17" d="M131.1,6.3c-15,2.1-26.8,13.9-28.8,28.9C111.9,25.6,121.5,15.9,131.1,6.3z"/>
				
					<linearGradient id="SVGID_12_" gradientUnits="userSpaceOnUse" x1="101.963" y1="139.9" x2="169.7253" y2="139.9" gradientTransform="matrix(1 0 0 -1 0 192)">
					<stop  offset="0" style="stop-color:#FFFFFF"/>
					<stop  offset="5.859911e-02" style="stop-color:#FDFDFE"/>
					<stop  offset="1" style="stop-color:#E4E6F3"/>
				</linearGradient>
				<path class="st18" d="M126.5,72.4c3,0.9,6.1,1.3,9.3,1.3c18.7,0,33.9-15.2,33.9-33.9c0-3.2-0.5-6.4-1.3-9.3L126.5,72.4z"/>
				<g>
					<circle class="st19" cx="135.8" cy="39.8" r="25.1"/>
					<g>
						<path class="st9" d="M132.3,50.7c0-0.9,0.3-1.7,1-2.3s1.5-0.9,2.5-0.9s1.9,0.3,2.5,0.9c0.7,0.6,1,1.4,1,2.3
							c0,0.9-0.3,1.7-1,2.3s-1.5,0.9-2.5,0.9s-1.9-0.3-2.5-0.9C132.6,52.4,132.3,51.6,132.3,50.7z M138.5,44.7h-5.2l-0.8-19h6.8
							L138.5,44.7z"/>
					</g>
				</g>
			</g>
		</g>
	</g>
</g>
</svg>
