<?xml version="1.0" standalone="no"?>
<!DOCTYPE svg PUBLIC "-//W3C//DTD SVG 20010904//EN"
 "http://www.w3.org/TR/2001/REC-SVG-20010904/DTD/svg10.dtd">
<svg version="1.0" xmlns="http://www.w3.org/2000/svg"
 width="1080.000000pt" height="1080.000000pt" viewBox="0 0 1080.000000 1080.000000"
 preserveAspectRatio="xMidYMid meet">

<g transform="translate(0.000000,1080.000000) scale(0.100000,-0.100000)"
fill="#FFFFFF" stroke="none">
<path d="M5368 8463 c-507 -421 -945 -784 -972 -806 l-48 -41 -32 37 c-209
245 -694 786 -702 784 -7 -1 -142 -117 -300 -257 -159 -140 -302 -267 -318
-281 l-29 -26 357 -404 358 -404 -42 -36 c-22 -19 -540 -449 -1150 -955 -610
-505 -1109 -921 -1109 -924 -1 -7 527 -643 543 -654 10 -7 75 41 247 185 541
451 2065 1716 2076 1722 14 8 -12 37 1002 -1113 420 -476 776 -878 791 -894
l28 -29 318 282 c176 155 320 285 322 289 1 4 -181 214 -404 467 -1142 1291
-1375 1557 -1372 1564 4 12 1268 1061 1277 1060 3 0 346 -385 761 -856 1359
-1541 1774 -2008 1782 -2008 16 0 639 558 636 570 -2 7 -412 475 -913 1041
-500 566 -1193 1350 -1539 1742 -346 391 -633 712 -637 712 -4 0 -423 -345
-931 -767z"/>
<path d="M3770 4850 l0 -110 115 0 115 0 0 110 0 110 -115 0 -115 0 0 -110z"/>
<path d="M4100 4850 l0 -110 115 0 115 0 0 110 0 110 -115 0 -115 0 0 -110z"/>
<path d="M3772 4538 l3 -113 110 0 110 0 3 113 3 112 -116 0 -116 0 3 -112z"/>
<path d="M4102 4538 l3 -113 110 0 110 0 0 110 0 110 -113 3 -113 3 3 -113z"/>
<path d="M1750 3681 c-122 -40 -195 -153 -175 -274 18 -105 62 -154 240 -269
160 -103 201 -154 193 -240 -10 -94 -72 -143 -183 -143 -58 0 -78 5 -115 27
-66 38 -110 109 -110 174 0 15 -6 24 -15 24 -13 0 -15 -21 -15 -125 0 -130 6
-145 39 -104 l17 21 94 -32 c77 -26 105 -31 150 -27 71 6 126 34 174 87 51 56
67 100 67 175 0 121 -38 170 -236 300 -153 100 -200 146 -211 200 -19 105 50
175 171 175 87 -1 179 -73 191 -150 4 -24 12 -40 20 -40 11 0 14 23 14 110 0
106 -8 131 -29 93 -9 -16 -13 -16 -68 1 -65 21 -175 30 -213 17z"/>
<path d="M2636 3674 c-172 -42 -317 -185 -356 -353 -8 -33 -11 -91 -8 -151 4
-86 9 -107 40 -172 64 -134 181 -234 317 -270 311 -81 612 124 637 435 13 148
-36 280 -142 384 -126 124 -306 171 -488 127z m278 -58 c94 -46 169 -152 195
-274 16 -76 14 -228 -4 -297 -31 -117 -103 -213 -198 -262 -45 -24 -64 -27
-142 -27 -78 0 -97 3 -140 26 -154 81 -237 281 -208 501 16 117 45 187 105
252 79 87 151 117 265 111 52 -2 86 -10 127 -30z"/>
<path d="M3270 3655 c0 -8 14 -17 35 -21 51 -9 79 -42 215 -251 l121 -188 -3
-180 c-3 -122 -8 -189 -17 -206 -14 -28 -49 -49 -81 -49 -11 0 -20 -7 -20 -15
0 -13 26 -15 175 -15 143 0 175 3 175 14 0 8 -15 17 -35 20 -63 12 -70 34 -73
247 l-4 186 117 184 c133 209 154 235 207 251 21 6 38 17 38 25 0 10 -28 13
-130 13 -109 0 -130 -2 -130 -15 0 -8 9 -15 20 -15 11 0 27 -11 36 -25 13 -20
14 -30 5 -58 -10 -30 -149 -259 -170 -280 -9 -9 -165 220 -199 290 -19 41 -5
61 49 69 23 4 39 12 39 20 0 11 -35 14 -185 14 -155 0 -185 -2 -185 -15z"/>
<path d="M4590 3655 c0 -8 7 -15 15 -15 30 0 64 -24 77 -54 10 -24 13 -115 13
-386 0 -271 -3 -362 -13 -386 -13 -30 -47 -54 -77 -54 -8 0 -15 -7 -15 -15 0
-13 26 -15 170 -15 138 0 170 3 170 14 0 8 -15 17 -35 20 -62 12 -70 35 -73
238 l-4 178 257 0 256 0 -3 -186 -3 -186 -28 -24 c-15 -13 -37 -24 -48 -24
-10 0 -19 -7 -19 -15 0 -13 25 -15 165 -15 140 0 165 2 165 15 0 8 -9 15 -19
15 -11 0 -33 11 -48 24 l-28 24 0 392 0 392 28 24 c15 13 37 24 48 24 10 0 19
7 19 15 0 13 -25 15 -165 15 -140 0 -165 -2 -165 -15 0 -8 9 -15 19 -15 11 0
33 -11 48 -24 l28 -24 3 -181 3 -181 -256 0 -257 0 4 173 c3 197 11 221 73
233 20 3 35 12 35 20 0 11 -32 14 -170 14 -144 0 -170 -2 -170 -15z"/>
<path d="M5690 3655 c0 -8 9 -15 19 -15 11 0 33 -11 48 -24 l28 -24 0 -392 0
-392 -28 -24 c-15 -13 -37 -24 -48 -24 -10 0 -19 -7 -19 -15 0 -13 42 -15 337
-13 l337 3 22 88 c20 78 20 87 5 87 -9 0 -25 -19 -37 -43 -36 -72 -65 -81
-245 -85 -135 -3 -158 -1 -172 13 -15 14 -17 43 -17 201 l0 184 139 0 c77 0
151 -4 165 -10 15 -5 34 -25 43 -45 32 -66 43 -46 43 80 0 93 -3 115 -14 115
-8 0 -20 -16 -26 -36 -8 -22 -21 -39 -37 -45 -13 -5 -89 -9 -169 -9 l-144 0 0
195 0 195 163 -1 c199 0 226 -8 247 -66 8 -24 18 -43 22 -43 4 0 8 36 8 80 l0
80 -335 0 c-291 0 -335 -2 -335 -15z"/>
<path d="M6490 3657 c0 -7 23 -20 51 -30 43 -16 53 -25 70 -60 17 -39 19 -69
19 -372 0 -199 -4 -345 -11 -367 -10 -39 -48 -68 -89 -68 -11 0 -20 -7 -20
-15 0 -13 23 -15 145 -15 122 0 145 2 145 15 0 9 -9 15 -22 15 -40 0 -86 36
-93 72 -3 18 -4 184 -3 368 l3 336 326 -400 c179 -221 333 -402 342 -404 15
-3 16 33 19 420 3 475 1 461 76 481 23 6 42 17 42 24 0 10 -32 13 -140 13
-109 0 -140 -3 -140 -13 0 -8 17 -18 38 -23 28 -7 41 -17 55 -45 16 -33 17
-67 15 -339 l-3 -303 -290 362 -290 361 -122 0 c-93 0 -123 -3 -123 -13z"/>
<path d="M7610 3656 c0 -9 8 -16 19 -16 11 0 33 -11 48 -24 l28 -24 0 -392 0
-392 -28 -24 c-15 -13 -37 -24 -48 -24 -10 0 -19 -7 -19 -15 0 -13 25 -15 165
-15 140 0 165 2 165 15 0 8 -9 15 -19 15 -11 0 -33 11 -48 24 l-28 24 -3 171
-3 171 58 0 c72 0 127 -25 171 -75 18 -20 79 -106 134 -191 l101 -154 99 0
c78 0 98 3 98 14 0 8 -10 18 -22 22 -49 15 -82 51 -183 204 -58 87 -121 172
-141 189 l-37 30 46 21 c57 27 113 83 128 127 6 19 9 66 7 103 -5 93 -39 141
-133 190 l-68 35 -243 3 c-217 3 -244 2 -244 -12z m416 -51 c54 -16 115 -70
133 -118 17 -44 13 -127 -8 -173 -36 -78 -109 -114 -232 -114 l-79 0 0 210 0
210 68 0 c38 0 91 -7 118 -15z"/>
<path d="M8430 3655 c0 -8 14 -17 35 -21 51 -9 79 -42 215 -251 l121 -188 -3
-180 c-3 -122 -8 -189 -17 -206 -14 -28 -49 -49 -81 -49 -11 0 -20 -7 -20 -15
0 -13 26 -15 175 -15 143 0 175 3 175 14 0 8 -15 17 -35 20 -63 12 -70 34 -73
247 l-4 186 117 184 c133 209 154 235 207 251 21 6 38 17 38 25 0 10 -28 13
-130 13 -109 0 -130 -2 -130 -15 0 -8 9 -15 20 -15 11 0 27 -11 36 -25 13 -20
14 -30 5 -58 -10 -30 -149 -259 -170 -280 -9 -9 -165 220 -199 290 -19 41 -5
61 49 69 23 4 39 12 39 20 0 11 -35 14 -185 14 -155 0 -185 -2 -185 -15z"/>
</g>
</svg>
